Coordinates
version=1
nRows=42
nColumns=11
inDegrees=yes

Units are S.I. units (second, meters, Newtons, ...)
If the header above contains a line with 'inDegrees', this indicates whether rotational values are in degrees (yes) or radians (no).

endheader
time	pelvis_tilt	pelvis_tx	pelvis_ty	hip_flexion_l	hip_flexion_r	knee_angle_l	knee_angle_r	ankle_angle_l	ankle_angle_r	lumbar_extension
      3.27000000	    -90.03333230	      0.08084745	      0.82085493	     66.46496497	    103.20024233	     23.42882639	      9.43948095	    188.53360516	   -170.61207215	     95.21669503
      3.28000000	    -89.62276695	      0.07197148	      0.81950261	     65.91399398	    103.25936741	     21.10124249	      9.70051103	    189.09572657	   -170.63022018	     94.83914914
      3.29000000	    -89.25219577	      0.06294241	      0.81814017	     65.49592344	    103.35938269	     18.82992191	      9.97346003	    189.42115485	   -170.60362019	     94.50051276
      3.30000000	    -88.86511282	      0.05382053	      0.81679481	     65.10987582	    103.44492446	     16.67026861	     10.25817546	    189.43151045	   -170.53540514	     94.13515309
      3.31000000	    -88.53852355	      0.04462339	      0.81547637	     64.83222717	    103.59498719	     14.69685223	     10.51611336	    189.39230733	   -170.40782166	     93.84815172
      3.32000000	    -88.20549230	      0.03534059	      0.81419234	     64.54998350	    103.73101591	     12.99286603	     10.79934895	    189.49528429	   -170.21301943	     93.55913429
      3.33000000	    -87.90411765	      0.02593937	      0.81294297	     64.30580846	    103.89667160	     11.58774399	     11.08435357	    189.49191469	   -170.00074720	     93.30229002
      3.34000000	    -87.67044519	      0.01638350	      0.81171677	     64.12449847	    104.13486667	     10.55302893	     11.34624213	    189.39471405	   -169.61230578	     93.12573941
      3.35000000	    -87.47885365	      0.00676442	      0.81046634	     63.97376295	    104.41696070	      9.85901585	     11.60708885	    189.41638389	   -169.31837635	     93.00472957
      3.36000000	    -87.26969327	     -0.00297007	      0.80928441	     63.82486766	    104.67796299	      9.50799977	     11.87679516	    189.52715532	   -168.89848675	     92.86644163
      3.37000000	    -87.04303792	     -0.01282961	      0.80810541	     63.64864382	    104.94273464	      9.50898653	     12.10402880	    189.63294344	   -168.30612128	     92.70910212
      3.38000000	    -86.79834406	     -0.02281431	      0.80692356	     63.48753504	    105.22951104	      9.85711643	     12.27687570	    189.63597025	   -167.79539646	     92.54744611
      3.39000000	    -86.52174931	     -0.03279267	      0.80579853	     63.28673383	    105.54007441	     10.48046129	     12.33892784	    189.62824070	   -167.24481049	     92.36994163
      3.40000000	    -86.22970197	     -0.04304071	      0.80459179	     63.08595775	    105.81923423	     11.42740989	     12.45016884	    189.55242974	   -166.69829144	     92.15545799
      3.41000000	    -85.89678273	     -0.05332154	      0.80332390	     62.86648119	    106.14709193	     12.57322173	     12.40954957	    189.38208598	   -166.05596108	     91.91219526
      3.42000000	    -85.54349686	     -0.06358654	      0.80238082	     62.54738892	    106.45783122	     13.78290414	     12.34276939	    190.27939829	   -165.31454765	     91.67662587
      3.43000000	    -85.36898583	     -0.07373483	      0.80189082	     62.14510700	    106.88625303	     15.06236219	     12.29171893	    190.90524160	   -164.23227881	     91.70006119
      3.44000000	    -85.11468088	     -0.08408423	      0.80147990	     61.40353996	    107.24199228	     16.96566013	     12.23444180	    189.98273549	   -163.17971604	     91.59748326
      3.45000000	    -84.75300070	     -0.09435901	      0.80127545	     60.47184760	    107.48377567	     19.02487531	     12.16913932	    189.23815240	   -162.04456369	     91.37426586
      3.46000000	    -84.38433889	     -0.10477885	      0.80104967	     59.68588535	    107.69551351	     20.86602600	     12.13740174	    188.99398683	   -160.80324311	     91.12442122
      3.47000000	    -83.93504549	     -0.11527641	      0.80093381	     59.05314741	    107.80417716	     22.29679084	     12.14711907	    189.02365844	   -159.48409230	     90.77885136
      3.48000000	    -83.42687622	     -0.12599415	      0.80095157	     58.56717131	    107.82875436	     23.44492738	     12.21292098	    188.87874639	   -157.96742062	     90.34157078
      3.49000000	    -82.89203144	     -0.13693037	      0.80119977	     58.15656644	    107.78005962	     24.52082177	     12.32498854	    188.02562735	   -156.29796356	     89.85816282
      3.50000000	    -82.28189532	     -0.14789050	      0.80180034	     57.71916124	    107.56435587	     25.57970642	     12.52923226	    186.99874728	   -154.48026279	     89.28886988
      3.51000000	    -81.84368005	     -0.15923538	      0.80259689	     57.59220422	    107.45264808	     26.47430083	     12.81678297	    186.08485758	   -152.43122076	     88.87812922
      3.52000000	    -81.47316792	     -0.17082004	      0.80363624	     57.62059254	    107.31353586	     27.20073019	     13.18742515	    185.15740882	   -150.24676651	     88.52429149
      3.53000000	    -81.08345020	     -0.18232996	      0.80487954	     57.77037890	    107.06193389	     27.66162054	     13.65890405	    184.33690467	   -148.04041484	     88.14310525
      3.54000000	    -81.02751652	     -0.19445192	      0.80615617	     58.38805978	    107.06217603	     27.92017184	     14.19806607	    183.65977815	   -145.76995048	     88.08537152
      3.55000000	    -80.97354056	     -0.20645935	      0.80755516	     59.07809844	    106.95052580	     28.07132233	     14.83006204	    182.92643938	   -143.61506272	     88.03713910
      3.56000000	    -81.20030644	     -0.21884045	      0.80903133	     60.16451550	    107.00957442	     28.00481057	     15.59698369	    182.31477587	   -141.44012474	     88.27705731
      3.57000000	    -81.44691551	     -0.23108061	      0.81056930	     61.30141041	    106.94585464	     27.86230608	     16.47728622	    181.76649189	   -139.38103839	     88.54536876
      3.58000000	    -81.85512066	     -0.24349321	      0.81214036	     62.65782194	    106.93120537	     27.61521411	     17.44579739	    181.31799956	   -137.51526350	     88.98347604
      3.59000000	    -82.30037677	     -0.25580144	      0.81377981	     64.05457033	    106.83418371	     27.31276236	     18.49718870	    180.98938590	   -136.35023153	     89.46466171
      3.60000000	    -82.77683927	     -0.26806152	      0.81544848	     65.57703422	    106.66155507	     26.87893887	     19.62447286	    180.60850131	   -136.52741181	     89.96688377
      3.61000000	    -83.39029544	     -0.28047519	      0.81719646	     67.30955633	    106.54564613	     26.27491132	     20.69368402	    180.28740168	   -137.40144948	     90.60143166
      3.62000000	    -83.88010182	     -0.29254811	      0.81898852	     68.97712605	    106.19474862	     25.58053432	     21.72818010	    180.02110813	   -138.76927970	     91.10277497
      3.63000000	    -84.25044037	     -0.30418855	      0.82094928	     70.52162445	    105.59429337	     24.82158729	     22.74826209	    179.82214492	   -140.42314301	     91.50280890
      3.64000000	    -84.72156603	     -0.31600771	      0.82298341	     72.26111011	    105.02019586	     23.89631754	     23.68133332	    179.71324086	   -142.17106736	     91.95758060
      3.65000000	    -85.16177948	     -0.32768279	      0.82509508	     73.97588159	    104.32850248	     22.92203128	     24.59551329	    179.66113001	   -143.99774434	     92.38576552
      3.66000000	    -85.59356913	     -0.33926733	      0.82730618	     75.73800069	    103.53585309	     21.83210514	     25.45502696	    179.67054421	   -145.75821213	     92.80581516
      3.67000000	    -86.06307824	     -0.35077542	      0.82951999	     77.52858285	    102.70097080	     20.73012710	     26.29930578	    179.72151458	   -147.49701498	     93.25816694
      3.68000000	    -86.49028438	     -0.36199469	      0.83169300	     79.27375796	    101.71518281	     19.60124722	     27.14873673	    179.82586622	   -149.22409170	     93.68733645
